<svg width="192" height="248" viewBox="0 0 192 248" fill="none" xmlns="http://www.w3.org/2000/svg">
<path d="M32.65 246.285L34.52 235.395C38.5533 236.385 42.2017 236.88 45.465 236.88C47.115 236.88 48.5633 236.862 49.81 236.825C51.0933 236.752 52.23 236.642 53.22 236.495V233.195L47.28 232.7C44.6033 232.443 42.3667 232.003 40.57 231.38C38.7733 230.757 37.325 229.913 36.225 228.85C35.1617 227.75 34.3917 226.448 33.915 224.945C33.475 223.405 33.255 221.608 33.255 219.555C33.255 216.732 33.5483 214.385 34.135 212.515C34.7217 210.608 35.6567 209.087 36.94 207.95C38.2233 206.777 39.8733 205.952 41.89 205.475C43.9433 204.998 46.4367 204.76 49.37 204.76C55.2 204.76 60.48 205.31 65.21 206.41L63.56 216.97C59.4533 216.31 56.1717 215.98 53.715 215.98C51.2583 215.98 49.1683 216.09 47.445 216.31V219.555L52.175 219.995C55.0717 220.288 57.4917 220.783 59.435 221.48C61.3783 222.14 62.9367 223.02 64.11 224.12C65.32 225.22 66.1633 226.522 66.64 228.025C67.1533 229.528 67.41 231.252 67.41 233.195C67.41 235.982 67.0433 238.328 66.31 240.235C65.5767 242.142 64.6967 243.59 63.67 244.58C62.8267 245.387 61.7817 246.028 60.535 246.505C59.2883 246.945 57.9683 247.275 56.575 247.495C55.1817 247.715 53.77 247.843 52.34 247.88C50.9467 247.953 49.6817 247.99 48.545 247.99C45.685 247.99 42.935 247.843 40.295 247.55C37.655 247.257 35.1067 246.835 32.65 246.285ZM76.4511 237.21C77.9177 237.21 79.1277 237.687 80.0811 238.64C81.0711 239.593 81.5661 240.84 81.5661 242.38C81.5661 243.92 81.0711 245.167 80.0811 246.12C79.1277 247.073 77.9177 247.55 76.4511 247.55C74.9844 247.55 73.7561 247.055 72.7661 246.065C71.7761 245.075 71.2811 243.847 71.2811 242.38C71.2811 240.84 71.7761 239.593 72.7661 238.64C73.7561 237.687 74.9844 237.21 76.4511 237.21ZM108.164 234.845V233.085H104.809V222.965H120.704V245.02C115.497 247 110.089 247.99 104.479 247.99C100.629 247.99 97.4391 247.532 94.9091 246.615C92.4158 245.698 90.4358 244.342 88.9691 242.545C87.5025 240.712 86.4758 238.457 85.8891 235.78C85.3391 233.067 85.0641 229.913 85.0641 226.32C85.0641 222.507 85.4125 219.243 86.1091 216.53C86.8058 213.78 87.9608 211.543 89.5741 209.82C91.1875 208.06 93.3325 206.777 96.0091 205.97C98.6858 205.163 102.004 204.76 105.964 204.76C106.844 204.76 107.871 204.815 109.044 204.925C110.254 204.998 111.464 205.127 112.674 205.31C113.884 205.457 115.021 205.64 116.084 205.86C117.184 206.043 118.064 206.245 118.724 206.465L116.744 216.585C114.947 216.292 113.242 216.072 111.629 215.925C110.016 215.742 108.512 215.65 107.119 215.65C104.222 215.65 102.187 215.87 101.014 216.31C99.8408 216.75 99.2541 217.63 99.2541 218.95V237.65H103.599C105.212 237.65 106.367 237.485 107.064 237.155C107.797 236.788 108.164 236.018 108.164 234.845ZM130.699 237.21C132.166 237.21 133.376 237.687 134.329 238.64C135.319 239.593 135.814 240.84 135.814 242.38C135.814 243.92 135.319 245.167 134.329 246.12C133.376 247.073 132.166 247.55 130.699 247.55C129.232 247.55 128.004 247.055 127.014 246.065C126.024 245.075 125.529 243.847 125.529 242.38C125.529 240.84 126.024 239.593 127.014 238.64C128.004 237.687 129.232 237.21 130.699 237.21ZM154.492 247H141.292V205.75H154.492V247Z" fill="#70B22D"/>
<path d="M96.6461 3.10112e-05C85.2311 0.0195835 75.9698 9.26791 75.9894 20.6866C76.009 32.0857 85.2702 41.334 96.6853 41.334C108.1 41.334 117.362 32.0857 117.362 20.667V20.6279C117.342 9.20925 108.081 -0.0195215 96.6461 3.10112e-05ZM28.3908 47.7276C24.7489 47.7472 21.0483 47.9427 17.5827 48.8226C15.2919 49.4092 13.0793 50.3477 11.65 51.8337C9.84866 53.6912 9.61371 56.1939 10.4948 58.3446C11.278 60.2412 13.3926 61.649 15.7422 62.4702C20.8134 64.2104 26.4328 64.5623 31.7585 65.6573C32.7375 65.8919 33.834 66.1656 34.441 66.8304C35.0675 67.6321 34.6955 68.727 33.6578 69.2158C31.9347 70.0957 29.7222 70.0957 27.7055 70.0761C25.865 69.9979 23.8483 69.8415 22.3798 68.9225C21.3029 68.2578 21.1071 67.1433 21.3616 66.1656H9.49623C9.45707 67.9645 9.8095 69.8611 11.1409 71.4057C12.2374 72.7353 14.0388 73.6542 15.9576 74.2213C19.0316 75.1207 22.3602 75.3944 25.63 75.4726C30.0746 75.5508 34.5976 75.414 38.866 74.4168C41.4114 73.7911 43.9176 72.7939 45.5427 71.1711C48.4405 68.2773 47.7552 63.6825 43.9176 61.4339C41.9988 60.3194 39.7079 59.6351 37.3779 59.1854C33.9515 58.4815 30.4662 57.9536 27.0202 57.3866C25.8062 57.1519 24.514 56.9369 23.4958 56.3698C22.4189 55.8028 22.3406 54.4537 23.4371 53.8476C24.8468 53.0459 26.7265 53.0655 28.4104 53.0655C30.1921 53.1046 32.1305 53.2023 33.599 54.0431C34.4214 54.4928 34.7542 55.2749 34.7542 56.0179L46.0322 55.9983C45.9931 54.571 45.7189 53.085 44.6812 51.8532C43.4673 50.3281 41.3331 49.3701 39.1401 48.8226C35.6745 47.9232 32.0131 47.7472 28.3908 47.7276ZM52.8656 48.5684V75.4922H85.7793V69.6264H64.9464V64.4059H83.5276V58.677H64.9464V54.395H85.0353L85.0157 48.588L52.8656 48.5684ZM107.082 48.588C107.082 48.588 96.9203 48.588 91.8295 48.588V75.5117H103.382V57.3866L119.202 75.4922L135.062 75.5117V48.588H123.49L123.51 66.5762L107.082 48.588ZM155.66 48.6271C155.66 48.6271 143.207 66.5958 136.941 75.5508H149.061L151.979 70.7018H170.717L173.438 75.5704H186.909L169.052 48.6271H155.66ZM161.73 55.0598L167.486 64.8165L155.601 64.8361L161.73 55.0598ZM0 83.1176L0.0978992 97.782L54.9411 97.5865C57.741 98.1926 59.3661 100.011 58.7983 104.137L25.0622 163.107L36.0465 173.372L88.3051 83.1176H0ZM104.674 83.235L156.051 173.098L167.408 162.911L133.28 104.097C132.712 99.9523 134.337 98.1144 137.137 97.5083L192 97.7038L191.98 83.2936L104.674 83.235ZM96 98.1144L47.814 180.704L60.6192 186.941L92.7693 132.664C93.8854 131.764 95.0014 131.275 96.1175 131.236C97.2923 131.197 98.5062 131.627 99.7006 132.566L131.772 187L144.969 180.118L96 98.1144Z" fill="#70B22D"/>
</svg>
