<svg width="192" height="187" viewBox="0 0 192 187" fill="none" xmlns="http://www.w3.org/2000/svg">
<path d="M96.6461 3.10112e-05C85.2311 0.0195835 75.9698 9.26791 75.9894 20.6866C76.009 32.0857 85.2702 41.334 96.6853 41.334C108.1 41.334 117.362 32.0857 117.362 20.667V20.6279C117.342 9.20925 108.081 -0.0195215 96.6461 3.10112e-05ZM28.3908 47.7276C24.7489 47.7472 21.0483 47.9427 17.5827 48.8226C15.2919 49.4092 13.0793 50.3477 11.65 51.8337C9.84866 53.6912 9.61371 56.1939 10.4948 58.3446C11.278 60.2412 13.3926 61.649 15.7422 62.4702C20.8134 64.2104 26.4328 64.5623 31.7585 65.6573C32.7375 65.8919 33.834 66.1656 34.441 66.8304C35.0675 67.6321 34.6955 68.727 33.6578 69.2158C31.9347 70.0957 29.7222 70.0957 27.7055 70.0761C25.865 69.9979 23.8483 69.8415 22.3798 68.9225C21.3029 68.2578 21.1071 67.1433 21.3616 66.1656H9.49623C9.45707 67.9645 9.8095 69.8611 11.1409 71.4057C12.2374 72.7353 14.0388 73.6542 15.9576 74.2213C19.0316 75.1207 22.3602 75.3944 25.63 75.4726C30.0746 75.5508 34.5976 75.414 38.866 74.4168C41.4114 73.7911 43.9176 72.7939 45.5427 71.1711C48.4405 68.2773 47.7552 63.6825 43.9176 61.4339C41.9988 60.3194 39.7079 59.6351 37.3779 59.1854C33.9515 58.4815 30.4662 57.9536 27.0202 57.3866C25.8062 57.1519 24.514 56.9369 23.4958 56.3698C22.4189 55.8028 22.3406 54.4537 23.4371 53.8476C24.8468 53.0459 26.7265 53.0655 28.4104 53.0655C30.1921 53.1046 32.1305 53.2023 33.599 54.0431C34.4214 54.4928 34.7542 55.2749 34.7542 56.0179L46.0322 55.9983C45.9931 54.571 45.7189 53.085 44.6812 51.8532C43.4673 50.3281 41.3331 49.3701 39.1401 48.8226C35.6745 47.9232 32.0131 47.7472 28.3908 47.7276ZM52.8656 48.5684V75.4922H85.7793V69.6264H64.9464V64.4059H83.5276V58.677H64.9464V54.395H85.0353L85.0157 48.588L52.8656 48.5684ZM107.082 48.588C107.082 48.588 96.9202 48.588 91.8295 48.588V75.5117H103.382V57.3866L119.202 75.4922L135.062 75.5117V48.588H123.49L123.51 66.5762L107.082 48.588ZM155.66 48.6271C155.66 48.6271 143.207 66.5958 136.941 75.5508H149.061L151.979 70.7018H170.717L173.438 75.5704H186.909L169.052 48.6271H155.66ZM161.73 55.0598L167.486 64.8165L155.601 64.8361L161.73 55.0598ZM0 83.1176L0.0978992 97.782L54.9411 97.5865C57.741 98.1926 59.3661 100.011 58.7983 104.137L25.0622 163.107L36.0465 173.372L88.3051 83.1176H0ZM104.674 83.235L156.051 173.098L167.408 162.911L133.28 104.097C132.712 99.9523 134.337 98.1144 137.137 97.5083L192 97.7038L191.98 83.2936L104.674 83.235ZM96 98.1144L47.814 180.704L60.6192 186.941L92.7693 132.664C93.8854 131.764 95.0014 131.275 96.1175 131.236C97.2923 131.197 98.5062 131.627 99.7006 132.566L131.772 187L144.969 180.118L96 98.1144Z" fill="#FFCE40"/>
</svg>
